{"title":"21 &amp; Over.2013.WEB-DLRip.Cam.Audio-FANTA","uid":8401291,"size":1464896371,"categoryP":"video","categoryS":"movies","magnet":"?xt=urn:btih:d10ac9272b0d9a8cb4972615c313bb4fa470246f&amp;dn=21+%26amp%3B+Over.2013.WEB-DLRip.Cam.Audio-FANTA&amp;tr=udp%3A%2F%2Ftracker.openbittorrent.com%3A80&amp;tr=udp%3A%2F%2Fopen.demonii.com%3A1337&amp;tr=udp%3A%2F%2Ftracker.coppersurfer.tk%3A6969&amp;tr=udp%3A%2F%2Fexodus.desync.com%3A6969","seeders":1,"leechers":0,"uploader":"xxxlavalxxx","files":-1,"time":1366706546,"description":"\n &lt;a href=&quot;\nhttp://www.imdb.com/title/tt1711425/&quot; rel=&quot;nofollow&quot; target=&quot;_NEW&quot;&gt;\nhttp://www.imdb.com/title/tt1711425/&lt;/a&gt;\n\n\nPlot: The night before his big medical school interview, a promising student celebrates his 21st birthday with his two best friends. \n\n\n\nDirectors:\n Jon Lucas, Scott Moore \n\nWriters:\n Jon Lucas, Scott Moore \n\nStars:\n Miles Teller, Justin Chon, Sarah Wright \n\nGenres:\n  Comedy \n\nCountry:\n USA \n\nLanguage:\n English \n\n\n\nFormat                                   : AVI\nFormat/Info                              : Audio Video Interleave\nFormat profile                           : OpenDML\nFormat settings                          : rec\nFile size                                : 1.36 GiB\nDuration                                 : 1h 29mn\nOverall bit rate                         : 2 187 Kbps\nWriting application                      : AVI-Mux GUI 1.17.8.3, Feb 16 201019:42:50\n\nVideo\nID                                       : 0\nFormat                                   : MPEG-4 Visual\nFormat profile                           : Advanced Simple@L5\nFormat settings, BVOP                    : 2\nFormat settings, QPel                    : No\nFormat settings, GMC                     : No warppoints\nFormat settings, Matrix                  : Default (H.263)\nCodec ID                                 : XVID\nCodec ID/Hint                            : XviD\nDuration                                 : 1h 29mn\nBit rate                                 : 1 990 Kbps\nWidth                                    : 720 pixels\nHeight                                   : 400 pixels\nDisplay aspect ratio                     : 16:9\nFrame rate                               : 25.000 fps\nColor space                              : YUV\nChroma subsampling                       : 4:2:0\nBit depth                                : 8 bits\nScan type                                : Progressive\nCompression mode                         : Lossy\nBits/(Pixel*Frame)                       : 0.276\nStream size                              : 1.24 GiB (91%)\nWriting library                          : XviD 1.2.1 (UTC 2008-12-04)\n\nAudio\nID                                       : 1\nFormat                                   : AC-3\nFormat/Info                              : Audio Coding 3\nMode extension                           : CM (complete main)\nFormat settings, Endianness              : Big\nCodec ID                                 : 2000\nDuration                                 : 1h 29mn\nBit rate mode                            : Constant\nBit rate                                 : 192 Kbps\nChannel(s)                               : 2 channels\nChannel positions                        : Front: L R\nSampling rate                            : 48.0 KHz\nBit depth                                : 16 bits\nCompression mode                         : Lossy\nStream size                              : 123 MiB (9%)\nAlignment                                : Aligned on interleaves\nInterleave, duration                     : 64 ms (1.60 video frames)\nInterleave, preload duration             : 192 ms\nTitle                                    : Audio-Cam\n\n\n\n\n    &lt;a href=&quot;\thttp://www.shotpix.com/images/02995123975522438238.png&quot; rel=&quot;nofollow&quot; target=&quot;_NEW&quot;&gt;\thttp://www.shotpix.com/images/02995123975522438238.png&lt;/a&gt;\n    &lt;a href=&quot;\thttp://www.shotpix.com/images/61958913900471847937.png&quot; rel=&quot;nofollow&quot; target=&quot;_NEW&quot;&gt;\thttp://www.shotpix.com/images/61958913900471847937.png&lt;/a&gt;\n    &lt;a href=&quot;\thttp://www.shotpix.com/images/68102089780717751039.png&quot; rel=&quot;nofollow&quot; target=&quot;_NEW&quot;&gt;\thttp://www.shotpix.com/images/68102089780717751039.png&lt;/a&gt;\n    &lt;a href=&quot;\thttp://www.shotpix.com/images/78903885273093615061.png&quot; rel=&quot;nofollow&quot; target=&quot;_NEW&quot;&gt;\thttp://www.shotpix.com/images/78903885273093615061.png&lt;/a&gt;","torrent":{"xt":"urn:btih:d10ac9272b0d9a8cb4972615c313bb4fa470246f","amp;dn":"21+%26amp%3B+Over.2013.WEB-DLRip.Cam.Audio-FANTA","amp;tr":["udp%3A%2F%2Ftracker.openbittorrent.com%3A80","udp%3A%2F%2Fopen.demonii.com%3A1337","udp%3A%2F%2Ftracker.coppersurfer.tk%3A6969","udp%3A%2F%2Fexodus.desync.com%3A6969"],"infoHash":"d10ac9272b0d9a8cb4972615c313bb4fa470246f","infoHashBuffer":{"type":"Buffer","data":[209,10,201,39,43,13,154,140,180,151,38,21,195,19,187,79,164,112,36,111]},"announce":[],"urlList":[]}}